<?xml version="1.0" encoding="UTF-8" standalone="no"?>
<!-- Created with Inkscape (http://www.inkscape.org/) -->

<svg
   width="8.999999mm"
   height="8.9991922mm"
   viewBox="0 0 8.999999 8.9991922"
   version="1.1"
   id="svg1"
   xml:space="preserve"
   xmlns:inkscape="http://www.inkscape.org/namespaces/inkscape"
   xmlns:sodipodi="http://sodipodi.sourceforge.net/DTD/sodipodi-0.dtd"
   xmlns="http://www.w3.org/2000/svg"
   xmlns:svg="http://www.w3.org/2000/svg"><sodipodi:namedview
     id="namedview1"
     pagecolor="#ffffff"
     bordercolor="#999999"
     borderopacity="1"
     inkscape:showpageshadow="2"
     inkscape:pageopacity="0"
     inkscape:pagecheckerboard="0"
     inkscape:deskcolor="#d1d1d1"
     inkscape:document-units="mm" /><defs
     id="defs1" /><g
     inkscape:label="Capa 1"
     inkscape:groupmode="layer"
     id="layer1"
     transform="translate(129.14463,-143.42213)"><path
       id="path4218"
       d="m -124.64463,143.42213 a 4.4999558,4.4999558 0 0 0 -4.5,4.5 4.4999558,4.4999558 0 0 0 4.5,4.49918 4.4999558,4.4999558 0 0 0 4.5,-4.49918 4.4999558,4.4999558 0 0 0 -4.5,-4.5 z m -3.24071,2.95988 h 0.49453 v 1.54667 c 0,0.5225 0.44679,0.94563 0.99727,0.94569 0.55053,0 0.99646,-0.42319 0.99646,-0.94569 v -1.54667 h 0.49453 v 1.49099 1.49099 c -0.49461,0 -1.00011,-8.3e-4 -1.49099,0 -1.00832,0 -1.4918,-0.66753 -1.4918,-1.49099 -9e-4,-0.4964 7.1e-4,-0.9941 0,-1.49099 z m 3.48306,0 c 0.49466,0 1.00012,8.3e-4 1.491,0 1.0083,0 1.49099,0.66751 1.49099,1.49099 9e-4,0.49638 -6.9e-4,0.99414 0,1.49099 h -0.49454 v -1.54666 c 0,-0.52246 -0.44589,-0.94651 -0.99645,-0.94651 -0.55057,0 -0.9965,0.42399 -0.99645,0.94651 v 1.54666 h -0.49455 V 147.873 Z"
       style="fill:#ffffff;fill-opacity:1;stroke-width:0.0641587"
       inkscape:export-filename="circular_logo_unal.svg"
       inkscape:export-xdpi="20.32"
       inkscape:export-ydpi="20.32" /></g></svg>
