<?xml version="1.0" encoding="UTF-8" standalone="no"?>
<!-- Created with Inkscape (http://www.inkscape.org/) -->

<svg
   width="11.999784mm"
   height="5.350594mm"
   viewBox="0 0 11.999784 5.350594"
   version="1.1"
   id="svg1"
   xml:space="preserve"
   xmlns:inkscape="http://www.inkscape.org/namespaces/inkscape"
   xmlns:sodipodi="http://sodipodi.sourceforge.net/DTD/sodipodi-0.dtd"
   xmlns="http://www.w3.org/2000/svg"
   xmlns:svg="http://www.w3.org/2000/svg"><sodipodi:namedview
     id="namedview1"
     pagecolor="#ffffff"
     bordercolor="#999999"
     borderopacity="1"
     inkscape:showpageshadow="2"
     inkscape:pageopacity="0"
     inkscape:pagecheckerboard="0"
     inkscape:deskcolor="#d1d1d1"
     inkscape:document-units="mm" /><defs
     id="defs1" /><g
     inkscape:label="Capa 1"
     inkscape:groupmode="layer"
     id="layer1"
     transform="translate(145.19475,-144.95962)"><path
       id="path3768"
       style="fill:#fffefe;fill-opacity:1;stroke:none"
       d="M 1.517285,-0.00217792 V 44.315408 c 0,13.565936 12.293595,33.30294 40.969046,33.24568 H 84.983569 V -0.00217792 H 71.38715 V 19.781923 c 0,10.69792 -0.496217,21.747466 -1.093707,24.533485 C 67.494606,57.365933 56.397367,65.320129 42.486331,65.283109 28.575295,65.320129 17.500529,57.365933 14.701692,44.315408 14.104202,41.529389 13.607985,30.479843 13.607985,19.781923 V -0.00217792 Z m 90.485483,0 V 77.561088 H 105.5917 v -19.77661 c 0,-10.697919 0.49621,-21.747466 1.0937,-24.533484 2.79884,-13.050525 13.90357,-21.004722 27.81461,-20.967702 13.91103,-0.03702 24.9858,7.917177 27.78464,20.967702 0.59748,2.786018 1.0937,13.835565 1.0937,24.533484 v 19.77661 h 12.0907 V 33.250994 c 0,-13.565937 -12.29359,-33.31043187 -40.96904,-33.25317192 z"
       transform="matrix(0.0689834,0,0,0.0689834,-145.29942,144.95978)" /></g></svg>
